<svg xmlns="http://www.w3.org/2000/svg" version="1.1" xmlns:xlink="http://www.w3.org/1999/xlink" width="512" height="512" x="0" y="0" viewBox="0 0 512 512" style="enable-background:new 0 0 512 512" xml:space="preserve" class=""><g><path fill="#f4f3ff" d="M301.491 512h-90.994a15 15 0 0 1-14.882-13.117l-2.624-20.731a229.096 229.096 0 0 1-49.509-20.532c-5.514 4.271-11.027 8.542-16.536 12.814-5.973 4.63-14.456 4.097-19.8-1.247l-64.341-64.343a14.998 14.998 0 0 1-1.247-19.798l12.817-16.535a229.086 229.086 0 0 1-20.53-49.51c-6.91-.878-13.819-1.755-20.728-2.628A15 15 0 0 1 0 301.491v-90.994a15 15 0 0 1 13.118-14.882l20.73-2.624a229.194 229.194 0 0 1 20.531-49.509c-4.27-5.514-8.541-11.027-12.813-16.536a15 15 0 0 1 1.247-19.8l64.343-64.341a14.997 14.997 0 0 1 19.798-1.247l16.535 12.817a228.998 228.998 0 0 1 49.502-20.526l2.624-20.732A15 15 0 0 1 210.497 0h90.994a15 15 0 0 1 14.882 13.118c.873 6.909 1.75 13.818 2.628 20.729a229.038 229.038 0 0 1 49.51 20.53l16.535-12.818a14.998 14.998 0 0 1 19.798 1.247l64.343 64.341a15 15 0 0 1 1.246 19.8c-4.272 5.51-8.543 11.022-12.813 16.535a229.075 229.075 0 0 1 20.533 49.51l20.729 2.624A15 15 0 0 1 512 210.498v90.994a15 15 0 0 1-13.118 14.882c-6.908.873-13.818 1.75-20.728 2.628a229.086 229.086 0 0 1-20.53 49.51l12.817 16.535a14.998 14.998 0 0 1-1.247 19.798l-64.341 64.343a15 15 0 0 1-19.8 1.247c-5.509-4.272-11.022-8.544-16.536-12.814a229.19 229.19 0 0 1-49.516 20.532c-.879 6.911-1.756 13.82-2.629 20.73-.947 7.496-7.324 13.117-14.881 13.117z" opacity="1" data-original="#f4f3ff" class=""></path><path fill="#e2dff4" d="m498.882 195.615-20.729-2.624a229.075 229.075 0 0 0-20.533-49.51c4.271-5.513 8.541-11.025 12.813-16.535a15 15 0 0 0-1.246-19.8l-64.343-64.341a14.998 14.998 0 0 0-19.798-1.247l-16.535 12.818a229.038 229.038 0 0 0-49.51-20.53c-.878-6.91-1.755-13.819-2.628-20.729A15 15 0 0 0 301.491 0H256v512h45.491a15 15 0 0 0 14.882-13.118c.873-6.91 1.75-13.819 2.629-20.73a229.19 229.19 0 0 0 49.516-20.532c5.514 4.271 11.027 8.542 16.536 12.814a15 15 0 0 0 19.8-1.247l64.341-64.343a14.998 14.998 0 0 0 1.247-19.798l-12.817-16.535a229.086 229.086 0 0 0 20.53-49.51c6.909-.878 13.819-1.755 20.728-2.628a15 15 0 0 0 13.118-14.882v-90.994a15.002 15.002 0 0 0-13.119-14.882z" opacity="1" data-original="#e2dff4" class=""></path><path fill="#00607f" d="M336.34 339.624c-11.954-31.947-18.807-58.209-21.563-82.649s-1.852-50.617 2.85-82.381a15 15 0 0 0-14.837-17.196H209.2a14.998 14.998 0 0 0-14.838 17.189c4.704 31.877 5.614 58.056 2.864 82.385-2.765 24.46-9.617 50.724-21.563 82.652a15 15 0 0 0 14.049 20.257h132.582a14.998 14.998 0 0 0 14.046-20.257z" opacity="1" data-original="#00607f" class=""></path><path fill="#002c3c" d="M336.34 339.624c-11.954-31.947-18.807-58.209-21.563-82.649s-1.852-50.617 2.85-82.381a15 15 0 0 0-14.837-17.196H256v202.483h66.291a14.998 14.998 0 0 0 14.049-20.257z" opacity="1" data-original="#002c3c" class=""></path><path fill="#007a9f" d="M315.051 108c-8.284 0-15 6.716-15 15v1.999H271V123c0-8.284-6.716-15-15-15s-15 6.716-15 15v1.999h-28.948V123c0-8.284-6.716-15-15-15s-15 6.716-15 15l-.103 52.998c0 2.38.566 4.726 1.652 6.843l12.305 24.002A14.998 14.998 0 0 0 209.254 215h94.481a14.998 14.998 0 0 0 13.567-8.604l11.315-24.002a15.004 15.004 0 0 0 1.433-6.396V123c.001-8.284-6.715-15-14.999-15zM320.409 314.105H191.591c-20.598 0-37.354 16.757-37.354 37.354V389c0 8.284 6.716 15 15 15h173.527c8.284 0 15-6.716 15-15v-37.541c0-20.597-16.757-37.354-37.355-37.354z" opacity="1" data-original="#007a9f" class=""></path><g fill="#00607f"><path d="M315.051 108c-8.284 0-15 6.716-15 15v1.999H271V123c0-8.284-6.716-15-15-15v107h47.735a14.998 14.998 0 0 0 13.567-8.604l11.315-24.002a15.004 15.004 0 0 0 1.433-6.396V123c.001-8.284-6.715-15-14.999-15zM320.409 314.105H256V404h86.764c8.284 0 15-6.716 15-15v-37.541c0-20.597-16.757-37.354-37.355-37.354z" fill="#00607f" opacity="1" data-original="#00607f" class=""></path></g></g></svg>
